<?xml version="1.0" encoding="UTF-8" standalone="no"?>
<!DOCTYPE svg PUBLIC "-//W3C//DTD SVG 1.1//EN"
 "http://www.w3.org/Graphics/SVG/1.1/DTD/svg11.dtd">
<!-- Generated by graphviz version 2.47.3 (20210619.1520)
 -->
<!-- Title: dependencies Pages: 1 -->
<svg width="719pt" height="174pt"
 viewBox="0.00 0.00 719.00 173.80" xmlns="http://www.w3.org/2000/svg" xmlns:xlink="http://www.w3.org/1999/xlink">
<g id="graph0" class="graph" transform="scale(1 1) rotate(0) translate(4 169.8)">
<title>dependencies</title>
<polygon fill="white" stroke="transparent" points="-4,4 -4,-169.8 715,-169.8 715,4 -4,4"/>
<text text-anchor="middle" x="355.5" y="-8.2" font-family="sans-serif" font-size="14.00">dependencies</text>
<g id="clust1" class="cluster">
<title>cluster_Tab1PageModule</title>
<polygon fill="none" stroke="black" stroke-dasharray="1,5" points="8,-32.8 8,-157.8 703,-157.8 703,-32.8 8,-32.8"/>
</g>
<g id="clust2" class="cluster">
<title>cluster_Tab1PageModule_declarations</title>
<polygon fill="none" stroke="black" points="607,-40.8 607,-92.8 695,-92.8 695,-40.8 607,-40.8"/>
</g>
<g id="clust4" class="cluster">
<title>cluster_Tab1PageModule_imports</title>
<polygon fill="none" stroke="black" points="16,-40.8 16,-92.8 599,-92.8 599,-40.8 16,-40.8"/>
</g>
<!-- Tab1Page -->
<g id="node1" class="node">
<title>Tab1Page</title>
<polygon fill="#ffffb3" stroke="black" points="686.98,-84.8 615.02,-84.8 615.02,-48.8 686.98,-48.8 686.98,-84.8"/>
<text text-anchor="middle" x="651" y="-62.6" font-family="Times,serif" font-size="14.00">Tab1Page</text>
</g>
<!-- Tab1PageModule -->
<g id="node2" class="node">
<title>Tab1PageModule</title>
<polygon fill="#8dd3c7" stroke="black" points="446.53,-149.8 443.53,-153.8 422.53,-153.8 419.53,-149.8 331.47,-149.8 331.47,-113.8 446.53,-113.8 446.53,-149.8"/>
<text text-anchor="middle" x="389" y="-127.6" font-family="Times,serif" font-size="14.00">Tab1PageModule</text>
</g>
<!-- Tab1Page&#45;&gt;Tab1PageModule -->
<g id="edge1" class="edge">
<title>Tab1Page&#45;&gt;Tab1PageModule</title>
<path fill="none" stroke="black" d="M651,-85.08C651,-106.12 651,-137.8 651,-137.8 651,-137.8 456.82,-137.8 456.82,-137.8"/>
<polygon fill="black" stroke="black" points="456.82,-134.3 446.82,-137.8 456.82,-141.3 456.82,-134.3"/>
</g>
<!-- ContainerModule -->
<g id="node3" class="node">
<title>ContainerModule</title>
<polygon fill="#8dd3c7" stroke="black" points="591.26,-84.8 588.26,-88.8 567.26,-88.8 564.26,-84.8 476.74,-84.8 476.74,-48.8 591.26,-48.8 591.26,-84.8"/>
<text text-anchor="middle" x="534" y="-62.6" font-family="Times,serif" font-size="14.00">ContainerModule</text>
</g>
<!-- ContainerModule&#45;&gt;Tab1PageModule -->
<g id="edge2" class="edge">
<title>ContainerModule&#45;&gt;Tab1PageModule</title>
<path fill="none" stroke="black" d="M534,-84.82C534,-102.17 534,-125.8 534,-125.8 534,-125.8 456.72,-125.8 456.72,-125.8"/>
<polygon fill="black" stroke="black" points="456.72,-122.3 446.72,-125.8 456.72,-129.3 456.72,-122.3"/>
</g>
<!-- PresentationalModule -->
<g id="node4" class="node">
<title>PresentationalModule</title>
<polygon fill="#8dd3c7" stroke="black" points="458.36,-84.8 455.36,-88.8 434.36,-88.8 431.36,-84.8 319.64,-84.8 319.64,-48.8 458.36,-48.8 458.36,-84.8"/>
<text text-anchor="middle" x="389" y="-62.6" font-family="Times,serif" font-size="14.00">PresentationalModule</text>
</g>
<!-- PresentationalModule&#45;&gt;Tab1PageModule -->
<g id="edge3" class="edge">
<title>PresentationalModule&#45;&gt;Tab1PageModule</title>
<path fill="none" stroke="black" d="M389,-84.91C389,-84.91 389,-103.79 389,-103.79"/>
<polygon fill="black" stroke="black" points="385.5,-103.79 389,-113.79 392.5,-103.79 385.5,-103.79"/>
</g>
<!-- SharedModule -->
<g id="node5" class="node">
<title>SharedModule</title>
<polygon fill="#8dd3c7" stroke="black" points="301.42,-84.8 298.42,-88.8 277.42,-88.8 274.42,-84.8 202.58,-84.8 202.58,-48.8 301.42,-48.8 301.42,-84.8"/>
<text text-anchor="middle" x="252" y="-62.6" font-family="Times,serif" font-size="14.00">SharedModule</text>
</g>
<!-- SharedModule&#45;&gt;Tab1PageModule -->
<g id="edge4" class="edge">
<title>SharedModule&#45;&gt;Tab1PageModule</title>
<path fill="none" stroke="black" d="M252,-84.82C252,-102.17 252,-125.8 252,-125.8 252,-125.8 321.3,-125.8 321.3,-125.8"/>
<polygon fill="black" stroke="black" points="321.3,-129.3 331.3,-125.8 321.3,-122.3 321.3,-129.3"/>
</g>
<!-- Tab1PageRoutingModule -->
<g id="node6" class="node">
<title>Tab1PageRoutingModule</title>
<polygon fill="#8dd3c7" stroke="black" points="184.15,-84.8 181.15,-88.8 160.15,-88.8 157.15,-84.8 23.85,-84.8 23.85,-48.8 184.15,-48.8 184.15,-84.8"/>
<text text-anchor="middle" x="104" y="-62.6" font-family="Times,serif" font-size="14.00">Tab1PageRoutingModule</text>
</g>
<!-- Tab1PageRoutingModule&#45;&gt;Tab1PageModule -->
<g id="edge5" class="edge">
<title>Tab1PageRoutingModule&#45;&gt;Tab1PageModule</title>
<path fill="none" stroke="black" d="M104,-85.08C104,-106.12 104,-137.8 104,-137.8 104,-137.8 321.33,-137.8 321.33,-137.8"/>
<polygon fill="black" stroke="black" points="321.33,-141.3 331.33,-137.8 321.33,-134.3 321.33,-141.3"/>
</g>
</g>
</svg>
