<?xml version="1.0" encoding="UTF-8" standalone="no"?>
<!DOCTYPE svg PUBLIC "-//W3C//DTD SVG 1.1//EN"
 "http://www.w3.org/Graphics/SVG/1.1/DTD/svg11.dtd">
<!-- Generated by graphviz version 2.47.3 (20210619.1520)
 -->
<!-- Title: dependencies Pages: 1 -->
<svg width="789pt" height="247pt"
 viewBox="0.00 0.00 789.00 246.80" xmlns="http://www.w3.org/2000/svg" xmlns:xlink="http://www.w3.org/1999/xlink">
<g id="graph0" class="graph" transform="scale(1 1) rotate(0) translate(4 242.8)">
<title>dependencies</title>
<polygon fill="white" stroke="transparent" points="-4,4 -4,-242.8 785,-242.8 785,4 -4,4"/>
<text text-anchor="middle" x="390.5" y="-8.2" font-family="sans-serif" font-size="14.00">dependencies</text>
<g id="clust1" class="cluster">
<title>cluster_ContainerModule</title>
<polygon fill="none" stroke="black" stroke-dasharray="1,5" points="8,-32.8 8,-230.8 773,-230.8 773,-32.8 8,-32.8"/>
</g>
<g id="clust7" class="cluster">
<title>cluster_ContainerModule_imports</title>
<polygon fill="none" stroke="black" points="651,-40.8 651,-92.8 765,-92.8 765,-40.8 651,-40.8"/>
</g>
<g id="clust2" class="cluster">
<title>cluster_ContainerModule_declarations</title>
<polygon fill="none" stroke="black" points="16,-40.8 16,-92.8 643,-92.8 643,-40.8 16,-40.8"/>
</g>
<g id="clust8" class="cluster">
<title>cluster_ContainerModule_exports</title>
<polygon fill="none" stroke="black" points="229,-170.8 229,-222.8 607,-222.8 607,-170.8 229,-170.8"/>
</g>
<!-- ClassPriorityPipe -->
<g id="node1" class="node">
<title>ClassPriorityPipe</title>
<polygon fill="#ffffb3" stroke="black" points="634.99,-84.8 521.01,-84.8 521.01,-48.8 634.99,-48.8 634.99,-84.8"/>
<text text-anchor="middle" x="578" y="-62.6" font-family="Times,serif" font-size="14.00">ClassPriorityPipe</text>
</g>
<!-- ContainerModule -->
<g id="node5" class="node">
<title>ContainerModule</title>
<polygon fill="#8dd3c7" stroke="black" points="473.26,-149.8 470.26,-153.8 449.26,-153.8 446.26,-149.8 358.74,-149.8 358.74,-113.8 473.26,-113.8 473.26,-149.8"/>
<text text-anchor="middle" x="416" y="-127.6" font-family="Times,serif" font-size="14.00">ContainerModule</text>
</g>
<!-- ClassPriorityPipe&#45;&gt;ContainerModule -->
<g id="edge1" class="edge">
<title>ClassPriorityPipe&#45;&gt;ContainerModule</title>
<path fill="none" stroke="black" d="M560.15,-84.82C560.15,-102.17 560.15,-125.8 560.15,-125.8 560.15,-125.8 483.38,-125.8 483.38,-125.8"/>
<polygon fill="black" stroke="black" points="483.38,-122.3 473.38,-125.8 483.38,-129.3 483.38,-122.3"/>
</g>
<!-- QueueContainerComponent -->
<g id="node2" class="node">
<title>QueueContainerComponent</title>
<polygon fill="#ffffb3" stroke="black" points="502.58,-84.8 329.42,-84.8 329.42,-48.8 502.58,-48.8 502.58,-84.8"/>
<text text-anchor="middle" x="416" y="-62.6" font-family="Times,serif" font-size="14.00">QueueContainerComponent</text>
</g>
<!-- QueueContainerComponent&#45;&gt;ContainerModule -->
<g id="edge2" class="edge">
<title>QueueContainerComponent&#45;&gt;ContainerModule</title>
<path fill="none" stroke="black" d="M416,-84.91C416,-84.91 416,-103.79 416,-103.79"/>
<polygon fill="black" stroke="black" points="412.5,-103.79 416,-113.79 419.5,-103.79 412.5,-103.79"/>
</g>
<!-- TaskContainerComponent -->
<g id="node3" class="node">
<title>TaskContainerComponent</title>
<polygon fill="#ffffb3" stroke="black" points="311.75,-84.8 148.25,-84.8 148.25,-48.8 311.75,-48.8 311.75,-84.8"/>
<text text-anchor="middle" x="230" y="-62.6" font-family="Times,serif" font-size="14.00">TaskContainerComponent</text>
</g>
<!-- TaskContainerComponent&#45;&gt;ContainerModule -->
<g id="edge3" class="edge">
<title>TaskContainerComponent&#45;&gt;ContainerModule</title>
<path fill="none" stroke="black" d="M274.62,-84.82C274.62,-102.17 274.62,-125.8 274.62,-125.8 274.62,-125.8 348.5,-125.8 348.5,-125.8"/>
<polygon fill="black" stroke="black" points="348.5,-129.3 358.5,-125.8 348.5,-122.3 348.5,-129.3"/>
</g>
<!-- TaskHeightPipe -->
<g id="node4" class="node">
<title>TaskHeightPipe</title>
<polygon fill="#ffffb3" stroke="black" points="130.2,-84.8 23.8,-84.8 23.8,-48.8 130.2,-48.8 130.2,-84.8"/>
<text text-anchor="middle" x="77" y="-62.6" font-family="Times,serif" font-size="14.00">TaskHeightPipe</text>
</g>
<!-- TaskHeightPipe&#45;&gt;ContainerModule -->
<g id="edge4" class="edge">
<title>TaskHeightPipe&#45;&gt;ContainerModule</title>
<path fill="none" stroke="black" d="M77,-85.08C77,-106.12 77,-137.8 77,-137.8 77,-137.8 348.49,-137.8 348.49,-137.8"/>
<polygon fill="black" stroke="black" points="348.49,-141.3 358.49,-137.8 348.49,-134.3 348.49,-141.3"/>
</g>
<!-- QueueContainerComponent  -->
<g id="node7" class="node">
<title>QueueContainerComponent </title>
<polygon fill="#fb8072" stroke="black" points="599.08,-214.8 422.92,-214.8 422.92,-178.8 599.08,-178.8 599.08,-214.8"/>
<text text-anchor="middle" x="511" y="-192.6" font-family="Times,serif" font-size="14.00">QueueContainerComponent </text>
</g>
<!-- ContainerModule&#45;&gt;QueueContainerComponent  -->
<g id="edge6" class="edge">
<title>ContainerModule&#45;&gt;QueueContainerComponent </title>
<path fill="none" stroke="black" stroke-dasharray="5,2" d="M448.05,-149.91C448.05,-149.91 448.05,-168.79 448.05,-168.79"/>
<polygon fill="black" stroke="black" points="444.55,-168.79 448.05,-178.79 451.55,-168.79 444.55,-168.79"/>
</g>
<!-- TaskContainerComponent  -->
<g id="node8" class="node">
<title>TaskContainerComponent </title>
<polygon fill="#fb8072" stroke="black" points="404.75,-214.8 237.25,-214.8 237.25,-178.8 404.75,-178.8 404.75,-214.8"/>
<text text-anchor="middle" x="321" y="-192.6" font-family="Times,serif" font-size="14.00">TaskContainerComponent </text>
</g>
<!-- ContainerModule&#45;&gt;TaskContainerComponent  -->
<g id="edge7" class="edge">
<title>ContainerModule&#45;&gt;TaskContainerComponent </title>
<path fill="none" stroke="black" stroke-dasharray="5,2" d="M381.62,-149.91C381.62,-149.91 381.62,-168.79 381.62,-168.79"/>
<polygon fill="black" stroke="black" points="378.12,-168.79 381.62,-178.79 385.12,-168.79 378.12,-168.79"/>
</g>
<!-- SharedModule -->
<g id="node6" class="node">
<title>SharedModule</title>
<polygon fill="#8dd3c7" stroke="black" points="757.42,-84.8 754.42,-88.8 733.42,-88.8 730.42,-84.8 658.58,-84.8 658.58,-48.8 757.42,-48.8 757.42,-84.8"/>
<text text-anchor="middle" x="708" y="-62.6" font-family="Times,serif" font-size="14.00">SharedModule</text>
</g>
<!-- SharedModule&#45;&gt;ContainerModule -->
<g id="edge5" class="edge">
<title>SharedModule&#45;&gt;ContainerModule</title>
<path fill="none" stroke="black" d="M708,-85.08C708,-106.12 708,-137.8 708,-137.8 708,-137.8 483.34,-137.8 483.34,-137.8"/>
<polygon fill="black" stroke="black" points="483.34,-134.3 473.34,-137.8 483.34,-141.3 483.34,-134.3"/>
</g>
</g>
</svg>
