<?xml version="1.0" encoding="UTF-8" standalone="no"?>
<!DOCTYPE svg PUBLIC "-//W3C//DTD SVG 1.1//EN"
 "http://www.w3.org/Graphics/SVG/1.1/DTD/svg11.dtd">
<!-- Generated by graphviz version 2.47.3 (20210619.1520)
 -->
<!-- Title: dependencies Pages: 1 -->
<svg width="586pt" height="174pt"
 viewBox="0.00 0.00 586.00 173.80" xmlns="http://www.w3.org/2000/svg" xmlns:xlink="http://www.w3.org/1999/xlink">
<g id="graph0" class="graph" transform="scale(1 1) rotate(0) translate(4 169.8)">
<title>dependencies</title>
<polygon fill="white" stroke="transparent" points="-4,4 -4,-169.8 582,-169.8 582,4 -4,4"/>
<text text-anchor="middle" x="289" y="-8.2" font-family="sans-serif" font-size="14.00">dependencies</text>
<g id="clust1" class="cluster">
<title>cluster_Tab2PageModule</title>
<polygon fill="none" stroke="black" stroke-dasharray="1,5" points="8,-32.8 8,-157.8 570,-157.8 570,-32.8 8,-32.8"/>
</g>
<g id="clust2" class="cluster">
<title>cluster_Tab2PageModule_declarations</title>
<polygon fill="none" stroke="black" points="474,-40.8 474,-92.8 562,-92.8 562,-40.8 474,-40.8"/>
</g>
<g id="clust4" class="cluster">
<title>cluster_Tab2PageModule_imports</title>
<polygon fill="none" stroke="black" points="16,-40.8 16,-92.8 466,-92.8 466,-40.8 16,-40.8"/>
</g>
<!-- Tab2Page -->
<g id="node1" class="node">
<title>Tab2Page</title>
<polygon fill="#ffffb3" stroke="black" points="553.98,-84.8 482.02,-84.8 482.02,-48.8 553.98,-48.8 553.98,-84.8"/>
<text text-anchor="middle" x="518" y="-62.6" font-family="Times,serif" font-size="14.00">Tab2Page</text>
</g>
<!-- Tab2PageModule -->
<g id="node2" class="node">
<title>Tab2PageModule</title>
<polygon fill="#8dd3c7" stroke="black" points="377.53,-149.8 374.53,-153.8 353.53,-153.8 350.53,-149.8 262.47,-149.8 262.47,-113.8 377.53,-113.8 377.53,-149.8"/>
<text text-anchor="middle" x="320" y="-127.6" font-family="Times,serif" font-size="14.00">Tab2PageModule</text>
</g>
<!-- Tab2Page&#45;&gt;Tab2PageModule -->
<g id="edge1" class="edge">
<title>Tab2Page&#45;&gt;Tab2PageModule</title>
<path fill="none" stroke="black" d="M518,-84.91C518,-104.14 518,-131.8 518,-131.8 518,-131.8 387.54,-131.8 387.54,-131.8"/>
<polygon fill="black" stroke="black" points="387.54,-128.3 377.54,-131.8 387.54,-135.3 387.54,-128.3"/>
</g>
<!-- PresentationalModule -->
<g id="node3" class="node">
<title>PresentationalModule</title>
<polygon fill="#8dd3c7" stroke="black" points="458.36,-84.8 455.36,-88.8 434.36,-88.8 431.36,-84.8 319.64,-84.8 319.64,-48.8 458.36,-48.8 458.36,-84.8"/>
<text text-anchor="middle" x="389" y="-62.6" font-family="Times,serif" font-size="14.00">PresentationalModule</text>
</g>
<!-- PresentationalModule&#45;&gt;Tab2PageModule -->
<g id="edge2" class="edge">
<title>PresentationalModule&#45;&gt;Tab2PageModule</title>
<path fill="none" stroke="black" d="M348.67,-84.91C348.67,-84.91 348.67,-103.79 348.67,-103.79"/>
<polygon fill="black" stroke="black" points="345.17,-103.79 348.67,-113.79 352.17,-103.79 345.17,-103.79"/>
</g>
<!-- SharedModule -->
<g id="node4" class="node">
<title>SharedModule</title>
<polygon fill="#8dd3c7" stroke="black" points="301.42,-84.8 298.42,-88.8 277.42,-88.8 274.42,-84.8 202.58,-84.8 202.58,-48.8 301.42,-48.8 301.42,-84.8"/>
<text text-anchor="middle" x="252" y="-62.6" font-family="Times,serif" font-size="14.00">SharedModule</text>
</g>
<!-- SharedModule&#45;&gt;Tab2PageModule -->
<g id="edge3" class="edge">
<title>SharedModule&#45;&gt;Tab2PageModule</title>
<path fill="none" stroke="black" d="M281.72,-84.91C281.72,-84.91 281.72,-103.79 281.72,-103.79"/>
<polygon fill="black" stroke="black" points="278.22,-103.79 281.72,-113.79 285.22,-103.79 278.22,-103.79"/>
</g>
<!-- Tab2PageRoutingModule -->
<g id="node5" class="node">
<title>Tab2PageRoutingModule</title>
<polygon fill="#8dd3c7" stroke="black" points="184.15,-84.8 181.15,-88.8 160.15,-88.8 157.15,-84.8 23.85,-84.8 23.85,-48.8 184.15,-48.8 184.15,-84.8"/>
<text text-anchor="middle" x="104" y="-62.6" font-family="Times,serif" font-size="14.00">Tab2PageRoutingModule</text>
</g>
<!-- Tab2PageRoutingModule&#45;&gt;Tab2PageModule -->
<g id="edge4" class="edge">
<title>Tab2PageRoutingModule&#45;&gt;Tab2PageModule</title>
<path fill="none" stroke="black" d="M104,-84.91C104,-104.14 104,-131.8 104,-131.8 104,-131.8 252.4,-131.8 252.4,-131.8"/>
<polygon fill="black" stroke="black" points="252.4,-135.3 262.4,-131.8 252.4,-128.3 252.4,-135.3"/>
</g>
</g>
</svg>
