<?xml version="1.0" encoding="UTF-8" standalone="no"?>
<!DOCTYPE svg PUBLIC "-//W3C//DTD SVG 1.1//EN"
 "http://www.w3.org/Graphics/SVG/1.1/DTD/svg11.dtd">
<!-- Generated by graphviz version 2.47.3 (20210619.1520)
 -->
<!-- Title: dependencies Pages: 1 -->
<svg width="1603pt" height="247pt"
 viewBox="0.00 0.00 1603.00 246.80" xmlns="http://www.w3.org/2000/svg" xmlns:xlink="http://www.w3.org/1999/xlink">
<g id="graph0" class="graph" transform="scale(1 1) rotate(0) translate(4 242.8)">
<title>dependencies</title>
<polygon fill="white" stroke="transparent" points="-4,4 -4,-242.8 1599,-242.8 1599,4 -4,4"/>
<text text-anchor="middle" x="797.5" y="-8.2" font-family="sans-serif" font-size="14.00">dependencies</text>
<g id="clust1" class="cluster">
<title>cluster_PresentationalModule</title>
<polygon fill="none" stroke="black" stroke-dasharray="1,5" points="8,-32.8 8,-230.8 1587,-230.8 1587,-32.8 8,-32.8"/>
</g>
<g id="clust13" class="cluster">
<title>cluster_PresentationalModule_exports</title>
<polygon fill="none" stroke="black" points="61,-170.8 61,-222.8 1534,-222.8 1534,-170.8 61,-170.8"/>
</g>
<g id="clust2" class="cluster">
<title>cluster_PresentationalModule_declarations</title>
<polygon fill="none" stroke="black" points="138,-40.8 138,-92.8 1579,-92.8 1579,-40.8 138,-40.8"/>
</g>
<g id="clust12" class="cluster">
<title>cluster_PresentationalModule_imports</title>
<polygon fill="none" stroke="black" points="16,-40.8 16,-92.8 130,-92.8 130,-40.8 16,-40.8"/>
</g>
<!-- DateTimeEntryComponent -->
<g id="node1" class="node">
<title>DateTimeEntryComponent</title>
<polygon fill="#ffffb3" stroke="black" points="1571.41,-84.8 1402.59,-84.8 1402.59,-48.8 1571.41,-48.8 1571.41,-84.8"/>
<text text-anchor="middle" x="1487" y="-62.6" font-family="Times,serif" font-size="14.00">DateTimeEntryComponent</text>
</g>
<!-- PresentationalModule -->
<g id="node10" class="node">
<title>PresentationalModule</title>
<polygon fill="#8dd3c7" stroke="black" points="874.36,-149.8 871.36,-153.8 850.36,-153.8 847.36,-149.8 735.64,-149.8 735.64,-113.8 874.36,-113.8 874.36,-149.8"/>
<text text-anchor="middle" x="805" y="-127.6" font-family="Times,serif" font-size="14.00">PresentationalModule</text>
</g>
<!-- DateTimeEntryComponent&#45;&gt;PresentationalModule -->
<g id="edge1" class="edge">
<title>DateTimeEntryComponent&#45;&gt;PresentationalModule</title>
<path fill="none" stroke="black" d="M1464.38,-85.02C1464.38,-103.63 1464.38,-129.8 1464.38,-129.8 1464.38,-129.8 884.63,-129.8 884.63,-129.8"/>
<polygon fill="black" stroke="black" points="884.63,-126.3 874.63,-129.8 884.63,-133.3 884.63,-126.3"/>
</g>
<!-- GoalEntryComponent -->
<g id="node2" class="node">
<title>GoalEntryComponent</title>
<polygon fill="#ffffb3" stroke="black" points="1384.65,-84.8 1245.35,-84.8 1245.35,-48.8 1384.65,-48.8 1384.65,-84.8"/>
<text text-anchor="middle" x="1315" y="-62.6" font-family="Times,serif" font-size="14.00">GoalEntryComponent</text>
</g>
<!-- GoalEntryComponent&#45;&gt;PresentationalModule -->
<g id="edge2" class="edge">
<title>GoalEntryComponent&#45;&gt;PresentationalModule</title>
<path fill="none" stroke="black" d="M1290.38,-84.82C1290.38,-102.17 1290.38,-125.8 1290.38,-125.8 1290.38,-125.8 884.54,-125.8 884.54,-125.8"/>
<polygon fill="black" stroke="black" points="884.54,-122.3 874.54,-125.8 884.54,-129.3 884.54,-122.3"/>
</g>
<!-- ItemEditComponent -->
<g id="node3" class="node">
<title>ItemEditComponent</title>
<polygon fill="#ffffb3" stroke="black" points="1227.32,-84.8 1096.68,-84.8 1096.68,-48.8 1227.32,-48.8 1227.32,-84.8"/>
<text text-anchor="middle" x="1162" y="-62.6" font-family="Times,serif" font-size="14.00">ItemEditComponent</text>
</g>
<!-- ItemEditComponent&#45;&gt;PresentationalModule -->
<g id="edge3" class="edge">
<title>ItemEditComponent&#45;&gt;PresentationalModule</title>
<path fill="none" stroke="black" d="M1135.88,-84.81C1135.88,-100.85 1135.88,-121.8 1135.88,-121.8 1135.88,-121.8 884.36,-121.8 884.36,-121.8"/>
<polygon fill="black" stroke="black" points="884.36,-118.3 874.36,-121.8 884.36,-125.3 884.36,-118.3"/>
</g>
<!-- ListViewComponent -->
<g id="node4" class="node">
<title>ListViewComponent</title>
<polygon fill="#ffffb3" stroke="black" points="1078.93,-84.8 945.07,-84.8 945.07,-48.8 1078.93,-48.8 1078.93,-84.8"/>
<text text-anchor="middle" x="1012" y="-62.6" font-family="Times,serif" font-size="14.00">ListViewComponent</text>
</g>
<!-- ListViewComponent&#45;&gt;PresentationalModule -->
<g id="edge4" class="edge">
<title>ListViewComponent&#45;&gt;PresentationalModule</title>
<path fill="none" stroke="black" d="M984.38,-84.92C984.38,-99.58 984.38,-117.8 984.38,-117.8 984.38,-117.8 884.61,-117.8 884.61,-117.8"/>
<polygon fill="black" stroke="black" points="884.61,-114.3 874.61,-117.8 884.61,-121.3 884.61,-114.3"/>
</g>
<!-- MetricsComponent -->
<g id="node5" class="node">
<title>MetricsComponent</title>
<polygon fill="#ffffb3" stroke="black" points="927.09,-84.8 802.91,-84.8 802.91,-48.8 927.09,-48.8 927.09,-84.8"/>
<text text-anchor="middle" x="865" y="-62.6" font-family="Times,serif" font-size="14.00">MetricsComponent</text>
</g>
<!-- MetricsComponent&#45;&gt;PresentationalModule -->
<g id="edge5" class="edge">
<title>MetricsComponent&#45;&gt;PresentationalModule</title>
<path fill="none" stroke="black" d="M838.69,-84.91C838.69,-84.91 838.69,-103.79 838.69,-103.79"/>
<polygon fill="black" stroke="black" points="835.19,-103.79 838.69,-113.79 842.19,-103.79 835.19,-103.79"/>
</g>
<!-- MilestoneEntryComponent -->
<g id="node6" class="node">
<title>MilestoneEntryComponent</title>
<polygon fill="#ffffb3" stroke="black" points="785.43,-84.8 616.57,-84.8 616.57,-48.8 785.43,-48.8 785.43,-84.8"/>
<text text-anchor="middle" x="701" y="-62.6" font-family="Times,serif" font-size="14.00">MilestoneEntryComponent</text>
</g>
<!-- MilestoneEntryComponent&#45;&gt;PresentationalModule -->
<g id="edge6" class="edge">
<title>MilestoneEntryComponent&#45;&gt;PresentationalModule</title>
<path fill="none" stroke="black" d="M760.39,-84.91C760.39,-84.91 760.39,-103.79 760.39,-103.79"/>
<polygon fill="black" stroke="black" points="756.89,-103.79 760.39,-113.79 763.89,-103.79 756.89,-103.79"/>
</g>
<!-- SettingsComponent -->
<g id="node7" class="node">
<title>SettingsComponent</title>
<polygon fill="#ffffb3" stroke="black" points="599.45,-84.8 472.55,-84.8 472.55,-48.8 599.45,-48.8 599.45,-84.8"/>
<text text-anchor="middle" x="536" y="-62.6" font-family="Times,serif" font-size="14.00">SettingsComponent</text>
</g>
<!-- SettingsComponent&#45;&gt;PresentationalModule -->
<g id="edge7" class="edge">
<title>SettingsComponent&#45;&gt;PresentationalModule</title>
<path fill="none" stroke="black" d="M575.13,-84.92C575.13,-99.58 575.13,-117.8 575.13,-117.8 575.13,-117.8 725.41,-117.8 725.41,-117.8"/>
<polygon fill="black" stroke="black" points="725.41,-121.3 735.41,-117.8 725.41,-114.3 725.41,-121.3"/>
</g>
<!-- ShowAwardComponent -->
<g id="node8" class="node">
<title>ShowAwardComponent</title>
<polygon fill="#ffffb3" stroke="black" points="454.81,-84.8 303.19,-84.8 303.19,-48.8 454.81,-48.8 454.81,-84.8"/>
<text text-anchor="middle" x="379" y="-62.6" font-family="Times,serif" font-size="14.00">ShowAwardComponent</text>
</g>
<!-- ShowAwardComponent&#45;&gt;PresentationalModule -->
<g id="edge8" class="edge">
<title>ShowAwardComponent&#45;&gt;PresentationalModule</title>
<path fill="none" stroke="black" d="M428.84,-84.81C428.84,-100.85 428.84,-121.8 428.84,-121.8 428.84,-121.8 725.57,-121.8 725.57,-121.8"/>
<polygon fill="black" stroke="black" points="725.57,-125.3 735.57,-121.8 725.57,-118.3 725.57,-125.3"/>
</g>
<!-- TaskEntryComponent -->
<g id="node9" class="node">
<title>TaskEntryComponent</title>
<polygon fill="#ffffb3" stroke="black" points="285.65,-84.8 146.35,-84.8 146.35,-48.8 285.65,-48.8 285.65,-84.8"/>
<text text-anchor="middle" x="216" y="-62.6" font-family="Times,serif" font-size="14.00">TaskEntryComponent</text>
</g>
<!-- TaskEntryComponent&#45;&gt;PresentationalModule -->
<g id="edge9" class="edge">
<title>TaskEntryComponent&#45;&gt;PresentationalModule</title>
<path fill="none" stroke="black" d="M258.21,-84.82C258.21,-102.17 258.21,-125.8 258.21,-125.8 258.21,-125.8 725.47,-125.8 725.47,-125.8"/>
<polygon fill="black" stroke="black" points="725.47,-129.3 735.47,-125.8 725.47,-122.3 725.47,-129.3"/>
</g>
<!-- DateTimeEntryComponent  -->
<g id="node12" class="node">
<title>DateTimeEntryComponent </title>
<polygon fill="#fb8072" stroke="black" points="1525.91,-214.8 1354.09,-214.8 1354.09,-178.8 1525.91,-178.8 1525.91,-214.8"/>
<text text-anchor="middle" x="1440" y="-192.6" font-family="Times,serif" font-size="14.00">DateTimeEntryComponent </text>
</g>
<!-- PresentationalModule&#45;&gt;DateTimeEntryComponent  -->
<g id="edge11" class="edge">
<title>PresentationalModule&#45;&gt;DateTimeEntryComponent </title>
<path fill="none" stroke="black" stroke-dasharray="5,2" d="M874.49,-133.8C1025.36,-133.8 1369.43,-133.8 1369.43,-133.8 1369.43,-133.8 1369.43,-168.58 1369.43,-168.58"/>
<polygon fill="black" stroke="black" points="1365.93,-168.58 1369.43,-178.58 1372.93,-168.58 1365.93,-168.58"/>
</g>
<!-- GoalEntryComponent  -->
<g id="node13" class="node">
<title>GoalEntryComponent </title>
<polygon fill="#fb8072" stroke="black" points="1335.65,-214.8 1192.35,-214.8 1192.35,-178.8 1335.65,-178.8 1335.65,-214.8"/>
<text text-anchor="middle" x="1264" y="-192.6" font-family="Times,serif" font-size="14.00">GoalEntryComponent </text>
</g>
<!-- PresentationalModule&#45;&gt;GoalEntryComponent  -->
<g id="edge12" class="edge">
<title>PresentationalModule&#45;&gt;GoalEntryComponent </title>
<path fill="none" stroke="black" stroke-dasharray="5,2" d="M874.59,-137.8C990.32,-137.8 1209.79,-137.8 1209.79,-137.8 1209.79,-137.8 1209.79,-168.78 1209.79,-168.78"/>
<polygon fill="black" stroke="black" points="1206.29,-168.78 1209.79,-178.78 1213.29,-168.78 1206.29,-168.78"/>
</g>
<!-- ItemEditComponent  -->
<g id="node14" class="node">
<title>ItemEditComponent </title>
<polygon fill="#fb8072" stroke="black" points="1174.82,-214.8 1041.18,-214.8 1041.18,-178.8 1174.82,-178.8 1174.82,-214.8"/>
<text text-anchor="middle" x="1108" y="-192.6" font-family="Times,serif" font-size="14.00">ItemEditComponent </text>
</g>
<!-- PresentationalModule&#45;&gt;ItemEditComponent  -->
<g id="edge13" class="edge">
<title>PresentationalModule&#45;&gt;ItemEditComponent </title>
<path fill="none" stroke="black" stroke-dasharray="5,2" d="M874.65,-141.8C950.12,-141.8 1059.9,-141.8 1059.9,-141.8 1059.9,-141.8 1059.9,-168.79 1059.9,-168.79"/>
<polygon fill="black" stroke="black" points="1056.4,-168.79 1059.9,-178.79 1063.4,-168.79 1056.4,-168.79"/>
</g>
<!-- ListViewComponent  -->
<g id="node15" class="node">
<title>ListViewComponent </title>
<polygon fill="#fb8072" stroke="black" points="1023.43,-214.8 886.57,-214.8 886.57,-178.8 1023.43,-178.8 1023.43,-214.8"/>
<text text-anchor="middle" x="955" y="-192.6" font-family="Times,serif" font-size="14.00">ListViewComponent </text>
</g>
<!-- PresentationalModule&#45;&gt;ListViewComponent  -->
<g id="edge14" class="edge">
<title>PresentationalModule&#45;&gt;ListViewComponent </title>
<path fill="none" stroke="black" stroke-dasharray="5,2" d="M874.58,-145.8C892.48,-145.8 906.79,-145.8 906.79,-145.8 906.79,-145.8 906.79,-168.68 906.79,-168.68"/>
<polygon fill="black" stroke="black" points="903.29,-168.68 906.79,-178.68 910.29,-168.68 903.29,-168.68"/>
</g>
<!-- MetricsComponent  -->
<g id="node16" class="node">
<title>MetricsComponent </title>
<polygon fill="#fb8072" stroke="black" points="868.59,-214.8 741.41,-214.8 741.41,-178.8 868.59,-178.8 868.59,-214.8"/>
<text text-anchor="middle" x="805" y="-192.6" font-family="Times,serif" font-size="14.00">MetricsComponent </text>
</g>
<!-- PresentationalModule&#45;&gt;MetricsComponent  -->
<g id="edge15" class="edge">
<title>PresentationalModule&#45;&gt;MetricsComponent </title>
<path fill="none" stroke="black" stroke-dasharray="5,2" d="M805,-149.91C805,-149.91 805,-168.79 805,-168.79"/>
<polygon fill="black" stroke="black" points="801.5,-168.79 805,-178.79 808.5,-168.79 801.5,-168.79"/>
</g>
<!-- MilestoneEntryComponent  -->
<g id="node17" class="node">
<title>MilestoneEntryComponent </title>
<polygon fill="#fb8072" stroke="black" points="722.93,-214.8 551.07,-214.8 551.07,-178.8 722.93,-178.8 722.93,-214.8"/>
<text text-anchor="middle" x="637" y="-192.6" font-family="Times,serif" font-size="14.00">MilestoneEntryComponent </text>
</g>
<!-- PresentationalModule&#45;&gt;MilestoneEntryComponent  -->
<g id="edge16" class="edge">
<title>PresentationalModule&#45;&gt;MilestoneEntryComponent </title>
<path fill="none" stroke="black" stroke-dasharray="5,2" d="M735.46,-145.8C702.35,-145.8 669.88,-145.8 669.88,-145.8 669.88,-145.8 669.88,-168.68 669.88,-168.68"/>
<polygon fill="black" stroke="black" points="666.38,-168.68 669.88,-178.68 673.38,-168.68 666.38,-168.68"/>
</g>
<!-- SettingsComponent  -->
<g id="node18" class="node">
<title>SettingsComponent </title>
<polygon fill="#fb8072" stroke="black" points="532.95,-214.8 403.05,-214.8 403.05,-178.8 532.95,-178.8 532.95,-214.8"/>
<text text-anchor="middle" x="468" y="-192.6" font-family="Times,serif" font-size="14.00">SettingsComponent </text>
</g>
<!-- PresentationalModule&#45;&gt;SettingsComponent  -->
<g id="edge17" class="edge">
<title>PresentationalModule&#45;&gt;SettingsComponent </title>
<path fill="none" stroke="black" stroke-dasharray="5,2" d="M735.31,-141.8C646.08,-141.8 502.88,-141.8 502.88,-141.8 502.88,-141.8 502.88,-168.79 502.88,-168.79"/>
<polygon fill="black" stroke="black" points="499.38,-168.79 502.88,-178.79 506.38,-168.79 499.38,-168.79"/>
</g>
<!-- ShowAwardComponent  -->
<g id="node19" class="node">
<title>ShowAwardComponent </title>
<polygon fill="#fb8072" stroke="black" points="385.31,-214.8 230.69,-214.8 230.69,-178.8 385.31,-178.8 385.31,-214.8"/>
<text text-anchor="middle" x="308" y="-192.6" font-family="Times,serif" font-size="14.00">ShowAwardComponent </text>
</g>
<!-- PresentationalModule&#45;&gt;ShowAwardComponent  -->
<g id="edge18" class="edge">
<title>PresentationalModule&#45;&gt;ShowAwardComponent </title>
<path fill="none" stroke="black" stroke-dasharray="5,2" d="M735.54,-137.8C606.86,-137.8 344.38,-137.8 344.38,-137.8 344.38,-137.8 344.38,-168.78 344.38,-168.78"/>
<polygon fill="black" stroke="black" points="340.88,-168.78 344.38,-178.78 347.88,-168.78 340.88,-168.78"/>
</g>
<!-- TaskEntryComponent  -->
<g id="node20" class="node">
<title>TaskEntryComponent </title>
<polygon fill="#fb8072" stroke="black" points="212.65,-214.8 69.35,-214.8 69.35,-178.8 212.65,-178.8 212.65,-214.8"/>
<text text-anchor="middle" x="141" y="-192.6" font-family="Times,serif" font-size="14.00">TaskEntryComponent </text>
</g>
<!-- PresentationalModule&#45;&gt;TaskEntryComponent  -->
<g id="edge19" class="edge">
<title>PresentationalModule&#45;&gt;TaskEntryComponent </title>
<path fill="none" stroke="black" stroke-dasharray="5,2" d="M735.36,-133.8C572.28,-133.8 179.38,-133.8 179.38,-133.8 179.38,-133.8 179.38,-168.58 179.38,-168.58"/>
<polygon fill="black" stroke="black" points="175.88,-168.58 179.38,-178.58 182.88,-168.58 175.88,-168.58"/>
</g>
<!-- SharedModule -->
<g id="node11" class="node">
<title>SharedModule</title>
<polygon fill="#8dd3c7" stroke="black" points="122.42,-84.8 119.42,-88.8 98.42,-88.8 95.42,-84.8 23.58,-84.8 23.58,-48.8 122.42,-48.8 122.42,-84.8"/>
<text text-anchor="middle" x="73" y="-62.6" font-family="Times,serif" font-size="14.00">SharedModule</text>
</g>
<!-- SharedModule&#45;&gt;PresentationalModule -->
<g id="edge10" class="edge">
<title>SharedModule&#45;&gt;PresentationalModule</title>
<path fill="none" stroke="black" d="M95.82,-85.02C95.82,-103.63 95.82,-129.8 95.82,-129.8 95.82,-129.8 725.39,-129.8 725.39,-129.8"/>
<polygon fill="black" stroke="black" points="725.39,-133.3 735.39,-129.8 725.39,-126.3 725.39,-133.3"/>
</g>
</g>
</svg>
