<?xml version="1.0" encoding="UTF-8" standalone="no"?>
<!DOCTYPE svg PUBLIC "-//W3C//DTD SVG 1.1//EN"
 "http://www.w3.org/Graphics/SVG/1.1/DTD/svg11.dtd">
<!-- Generated by graphviz version 2.47.3 (20210619.1520)
 -->
<!-- Title: dependencies Pages: 1 -->
<svg width="853pt" height="247pt"
 viewBox="0.00 0.00 853.00 246.80" xmlns="http://www.w3.org/2000/svg" xmlns:xlink="http://www.w3.org/1999/xlink">
<g id="graph0" class="graph" transform="scale(1 1) rotate(0) translate(4 242.8)">
<title>dependencies</title>
<polygon fill="white" stroke="transparent" points="-4,4 -4,-242.8 849,-242.8 849,4 -4,4"/>
<text text-anchor="middle" x="422.5" y="-8.2" font-family="sans-serif" font-size="14.00">dependencies</text>
<g id="clust1" class="cluster">
<title>cluster_AppModule</title>
<polygon fill="none" stroke="black" stroke-dasharray="1,5" points="8,-32.8 8,-230.8 837,-230.8 837,-32.8 8,-32.8"/>
</g>
<g id="clust7" class="cluster">
<title>cluster_AppModule_bootstrap</title>
<polygon fill="none" stroke="black" points="363,-170.8 363,-222.8 487,-222.8 487,-170.8 363,-170.8"/>
</g>
<g id="clust2" class="cluster">
<title>cluster_AppModule_declarations</title>
<polygon fill="none" stroke="black" points="575,-40.8 575,-92.8 829,-92.8 829,-40.8 575,-40.8"/>
</g>
<g id="clust5" class="cluster">
<title>cluster_AppModule_imports</title>
<polygon fill="none" stroke="black" points="16,-40.8 16,-92.8 567,-92.8 567,-40.8 16,-40.8"/>
</g>
<!-- AppComponent -->
<g id="node1" class="node">
<title>AppComponent</title>
<polygon fill="#ffffb3" stroke="black" points="820.94,-84.8 715.06,-84.8 715.06,-48.8 820.94,-48.8 820.94,-84.8"/>
<text text-anchor="middle" x="768" y="-62.6" font-family="Times,serif" font-size="14.00">AppComponent</text>
</g>
<!-- AppModule -->
<g id="node3" class="node">
<title>AppModule</title>
<polygon fill="#8dd3c7" stroke="black" points="466.66,-149.8 463.66,-153.8 442.66,-153.8 439.66,-149.8 383.34,-149.8 383.34,-113.8 466.66,-113.8 466.66,-149.8"/>
<text text-anchor="middle" x="425" y="-127.6" font-family="Times,serif" font-size="14.00">AppModule</text>
</g>
<!-- AppComponent&#45;&gt;AppModule -->
<g id="edge1" class="edge">
<title>AppComponent&#45;&gt;AppModule</title>
<path fill="none" stroke="black" d="M768,-85.08C768,-106.12 768,-137.8 768,-137.8 768,-137.8 476.72,-137.8 476.72,-137.8"/>
<polygon fill="black" stroke="black" points="476.72,-134.3 466.72,-137.8 476.72,-141.3 476.72,-134.3"/>
</g>
<!-- LoginComponent -->
<g id="node2" class="node">
<title>LoginComponent</title>
<polygon fill="#ffffb3" stroke="black" points="697.28,-84.8 582.72,-84.8 582.72,-48.8 697.28,-48.8 697.28,-84.8"/>
<text text-anchor="middle" x="640" y="-62.6" font-family="Times,serif" font-size="14.00">LoginComponent</text>
</g>
<!-- LoginComponent&#45;&gt;AppModule -->
<g id="edge2" class="edge">
<title>LoginComponent&#45;&gt;AppModule</title>
<path fill="none" stroke="black" d="M640,-84.82C640,-102.17 640,-125.8 640,-125.8 640,-125.8 476.71,-125.8 476.71,-125.8"/>
<polygon fill="black" stroke="black" points="476.71,-122.3 466.71,-125.8 476.71,-129.3 476.71,-122.3"/>
</g>
<!-- AppComponent  -->
<g id="node8" class="node">
<title>AppComponent </title>
<polygon fill="#80b1d3" stroke="black" points="479.44,-214.8 370.56,-214.8 370.56,-178.8 479.44,-178.8 479.44,-214.8"/>
<text text-anchor="middle" x="425" y="-192.6" font-family="Times,serif" font-size="14.00">AppComponent </text>
</g>
<!-- AppModule&#45;&gt;AppComponent  -->
<g id="edge7" class="edge">
<title>AppModule&#45;&gt;AppComponent </title>
<path fill="none" stroke="black" stroke-dasharray="1,5" d="M425,-149.91C425,-149.91 425,-168.79 425,-168.79"/>
<polygon fill="black" stroke="black" points="421.5,-168.79 425,-178.79 428.5,-168.79 421.5,-168.79"/>
</g>
<!-- AppRoutingModule -->
<g id="node4" class="node">
<title>AppRoutingModule</title>
<polygon fill="#8dd3c7" stroke="black" points="559.27,-84.8 556.27,-88.8 535.27,-88.8 532.27,-84.8 430.73,-84.8 430.73,-48.8 559.27,-48.8 559.27,-84.8"/>
<text text-anchor="middle" x="495" y="-62.6" font-family="Times,serif" font-size="14.00">AppRoutingModule</text>
</g>
<!-- AppRoutingModule&#45;&gt;AppModule -->
<g id="edge3" class="edge">
<title>AppRoutingModule&#45;&gt;AppModule</title>
<path fill="none" stroke="black" d="M448.72,-84.91C448.72,-84.91 448.72,-103.79 448.72,-103.79"/>
<polygon fill="black" stroke="black" points="445.22,-103.79 448.72,-113.79 452.22,-103.79 445.22,-103.79"/>
</g>
<!-- ContainerModule -->
<g id="node5" class="node">
<title>ContainerModule</title>
<polygon fill="#8dd3c7" stroke="black" points="412.26,-84.8 409.26,-88.8 388.26,-88.8 385.26,-84.8 297.74,-84.8 297.74,-48.8 412.26,-48.8 412.26,-84.8"/>
<text text-anchor="middle" x="355" y="-62.6" font-family="Times,serif" font-size="14.00">ContainerModule</text>
</g>
<!-- ContainerModule&#45;&gt;AppModule -->
<g id="edge4" class="edge">
<title>ContainerModule&#45;&gt;AppModule</title>
<path fill="none" stroke="black" d="M397.78,-84.91C397.78,-84.91 397.78,-103.79 397.78,-103.79"/>
<polygon fill="black" stroke="black" points="394.28,-103.79 397.78,-113.79 401.28,-103.79 394.28,-103.79"/>
</g>
<!-- PresentationalModule -->
<g id="node6" class="node">
<title>PresentationalModule</title>
<polygon fill="#8dd3c7" stroke="black" points="279.36,-84.8 276.36,-88.8 255.36,-88.8 252.36,-84.8 140.64,-84.8 140.64,-48.8 279.36,-48.8 279.36,-84.8"/>
<text text-anchor="middle" x="210" y="-62.6" font-family="Times,serif" font-size="14.00">PresentationalModule</text>
</g>
<!-- PresentationalModule&#45;&gt;AppModule -->
<g id="edge5" class="edge">
<title>PresentationalModule&#45;&gt;AppModule</title>
<path fill="none" stroke="black" d="M210,-84.82C210,-102.17 210,-125.8 210,-125.8 210,-125.8 373.29,-125.8 373.29,-125.8"/>
<polygon fill="black" stroke="black" points="373.29,-129.3 383.29,-125.8 373.29,-122.3 373.29,-129.3"/>
</g>
<!-- SharedModule -->
<g id="node7" class="node">
<title>SharedModule</title>
<polygon fill="#8dd3c7" stroke="black" points="122.42,-84.8 119.42,-88.8 98.42,-88.8 95.42,-84.8 23.58,-84.8 23.58,-48.8 122.42,-48.8 122.42,-84.8"/>
<text text-anchor="middle" x="73" y="-62.6" font-family="Times,serif" font-size="14.00">SharedModule</text>
</g>
<!-- SharedModule&#45;&gt;AppModule -->
<g id="edge6" class="edge">
<title>SharedModule&#45;&gt;AppModule</title>
<path fill="none" stroke="black" d="M73,-85.08C73,-106.12 73,-137.8 73,-137.8 73,-137.8 373.24,-137.8 373.24,-137.8"/>
<polygon fill="black" stroke="black" points="373.24,-141.3 383.24,-137.8 373.24,-134.3 373.24,-141.3"/>
</g>
</g>
</svg>
