<?xml version="1.0" encoding="UTF-8" standalone="no"?>
<!DOCTYPE svg PUBLIC "-//W3C//DTD SVG 1.1//EN"
 "http://www.w3.org/Graphics/SVG/1.1/DTD/svg11.dtd">
<!-- Generated by graphviz version 2.47.3 (20210619.1520)
 -->
<!-- Title: dependencies Pages: 1 -->
<svg width="586pt" height="174pt"
 viewBox="0.00 0.00 586.00 173.80" xmlns="http://www.w3.org/2000/svg" xmlns:xlink="http://www.w3.org/1999/xlink">
<g id="graph0" class="graph" transform="scale(1 1) rotate(0) translate(4 169.8)">
<title>dependencies</title>
<polygon fill="white" stroke="transparent" points="-4,4 -4,-169.8 582,-169.8 582,4 -4,4"/>
<text text-anchor="middle" x="289" y="-8.2" font-family="sans-serif" font-size="14.00">dependencies</text>
<g id="clust1" class="cluster">
<title>cluster_Tab3PageModule</title>
<polygon fill="none" stroke="black" stroke-dasharray="1,5" points="8,-32.8 8,-157.8 570,-157.8 570,-32.8 8,-32.8"/>
</g>
<g id="clust4" class="cluster">
<title>cluster_Tab3PageModule_imports</title>
<polygon fill="none" stroke="black" points="112,-40.8 112,-92.8 562,-92.8 562,-40.8 112,-40.8"/>
</g>
<g id="clust2" class="cluster">
<title>cluster_Tab3PageModule_declarations</title>
<polygon fill="none" stroke="black" points="16,-40.8 16,-92.8 104,-92.8 104,-40.8 16,-40.8"/>
</g>
<!-- Tab3Page -->
<g id="node1" class="node">
<title>Tab3Page</title>
<polygon fill="#ffffb3" stroke="black" points="95.98,-84.8 24.02,-84.8 24.02,-48.8 95.98,-48.8 95.98,-84.8"/>
<text text-anchor="middle" x="60" y="-62.6" font-family="Times,serif" font-size="14.00">Tab3Page</text>
</g>
<!-- Tab3PageModule -->
<g id="node2" class="node">
<title>Tab3PageModule</title>
<polygon fill="#8dd3c7" stroke="black" points="331.53,-149.8 328.53,-153.8 307.53,-153.8 304.53,-149.8 216.47,-149.8 216.47,-113.8 331.53,-113.8 331.53,-149.8"/>
<text text-anchor="middle" x="274" y="-127.6" font-family="Times,serif" font-size="14.00">Tab3PageModule</text>
</g>
<!-- Tab3Page&#45;&gt;Tab3PageModule -->
<g id="edge1" class="edge">
<title>Tab3Page&#45;&gt;Tab3PageModule</title>
<path fill="none" stroke="black" d="M60,-84.91C60,-104.14 60,-131.8 60,-131.8 60,-131.8 206.37,-131.8 206.37,-131.8"/>
<polygon fill="black" stroke="black" points="206.37,-135.3 216.37,-131.8 206.37,-128.3 206.37,-135.3"/>
</g>
<!-- PresentationalModule -->
<g id="node3" class="node">
<title>PresentationalModule</title>
<polygon fill="#8dd3c7" stroke="black" points="554.36,-84.8 551.36,-88.8 530.36,-88.8 527.36,-84.8 415.64,-84.8 415.64,-48.8 554.36,-48.8 554.36,-84.8"/>
<text text-anchor="middle" x="485" y="-62.6" font-family="Times,serif" font-size="14.00">PresentationalModule</text>
</g>
<!-- PresentationalModule&#45;&gt;Tab3PageModule -->
<g id="edge2" class="edge">
<title>PresentationalModule&#45;&gt;Tab3PageModule</title>
<path fill="none" stroke="black" d="M485,-84.91C485,-104.14 485,-131.8 485,-131.8 485,-131.8 341.66,-131.8 341.66,-131.8"/>
<polygon fill="black" stroke="black" points="341.66,-128.3 331.66,-131.8 341.66,-135.3 341.66,-128.3"/>
</g>
<!-- SharedModule -->
<g id="node4" class="node">
<title>SharedModule</title>
<polygon fill="#8dd3c7" stroke="black" points="397.42,-84.8 394.42,-88.8 373.42,-88.8 370.42,-84.8 298.58,-84.8 298.58,-48.8 397.42,-48.8 397.42,-84.8"/>
<text text-anchor="middle" x="348" y="-62.6" font-family="Times,serif" font-size="14.00">SharedModule</text>
</g>
<!-- SharedModule&#45;&gt;Tab3PageModule -->
<g id="edge3" class="edge">
<title>SharedModule&#45;&gt;Tab3PageModule</title>
<path fill="none" stroke="black" d="M315.28,-84.91C315.28,-84.91 315.28,-103.79 315.28,-103.79"/>
<polygon fill="black" stroke="black" points="311.78,-103.79 315.28,-113.79 318.78,-103.79 311.78,-103.79"/>
</g>
<!-- Tab3PageRoutingModule -->
<g id="node5" class="node">
<title>Tab3PageRoutingModule</title>
<polygon fill="#8dd3c7" stroke="black" points="280.15,-84.8 277.15,-88.8 256.15,-88.8 253.15,-84.8 119.85,-84.8 119.85,-48.8 280.15,-48.8 280.15,-84.8"/>
<text text-anchor="middle" x="200" y="-62.6" font-family="Times,serif" font-size="14.00">Tab3PageRoutingModule</text>
</g>
<!-- Tab3PageRoutingModule&#45;&gt;Tab3PageModule -->
<g id="edge4" class="edge">
<title>Tab3PageRoutingModule&#45;&gt;Tab3PageModule</title>
<path fill="none" stroke="black" d="M248.28,-84.91C248.28,-84.91 248.28,-103.79 248.28,-103.79"/>
<polygon fill="black" stroke="black" points="244.78,-103.79 248.28,-113.79 251.78,-103.79 244.78,-103.79"/>
</g>
</g>
</svg>
