<?xml version="1.0" encoding="UTF-8" standalone="no"?>
<!DOCTYPE svg PUBLIC "-//W3C//DTD SVG 1.1//EN"
 "http://www.w3.org/Graphics/SVG/1.1/DTD/svg11.dtd">
<!-- Generated by graphviz version 2.47.3 (20210619.1520)
 -->
<!-- Title: dependencies Pages: 1 -->
<svg width="428pt" height="174pt"
 viewBox="0.00 0.00 428.00 173.80" xmlns="http://www.w3.org/2000/svg" xmlns:xlink="http://www.w3.org/1999/xlink">
<g id="graph0" class="graph" transform="scale(1 1) rotate(0) translate(4 169.8)">
<title>dependencies</title>
<polygon fill="white" stroke="transparent" points="-4,4 -4,-169.8 424,-169.8 424,4 -4,4"/>
<text text-anchor="middle" x="210" y="-8.2" font-family="sans-serif" font-size="14.00">dependencies</text>
<g id="clust1" class="cluster">
<title>cluster_WelcomeSliderPageModule</title>
<polygon fill="none" stroke="black" stroke-dasharray="1,5" points="8,-32.8 8,-157.8 412,-157.8 412,-32.8 8,-32.8"/>
</g>
<g id="clust2" class="cluster">
<title>cluster_WelcomeSliderPageModule_declarations</title>
<polygon fill="none" stroke="black" points="258,-40.8 258,-92.8 404,-92.8 404,-40.8 258,-40.8"/>
</g>
<g id="clust4" class="cluster">
<title>cluster_WelcomeSliderPageModule_imports</title>
<polygon fill="none" stroke="black" points="16,-40.8 16,-92.8 250,-92.8 250,-40.8 16,-40.8"/>
</g>
<!-- WelcomeSliderPage -->
<g id="node1" class="node">
<title>WelcomeSliderPage</title>
<polygon fill="#ffffb3" stroke="black" points="396.29,-84.8 265.71,-84.8 265.71,-48.8 396.29,-48.8 396.29,-84.8"/>
<text text-anchor="middle" x="331" y="-62.6" font-family="Times,serif" font-size="14.00">WelcomeSliderPage</text>
</g>
<!-- WelcomeSliderPageModule -->
<g id="node2" class="node">
<title>WelcomeSliderPageModule</title>
<polygon fill="#8dd3c7" stroke="black" points="311.84,-149.8 308.84,-153.8 287.84,-153.8 284.84,-149.8 138.16,-149.8 138.16,-113.8 311.84,-113.8 311.84,-149.8"/>
<text text-anchor="middle" x="225" y="-127.6" font-family="Times,serif" font-size="14.00">WelcomeSliderPageModule</text>
</g>
<!-- WelcomeSliderPage&#45;&gt;WelcomeSliderPageModule -->
<g id="edge1" class="edge">
<title>WelcomeSliderPage&#45;&gt;WelcomeSliderPageModule</title>
<path fill="none" stroke="black" d="M288.89,-84.91C288.89,-84.91 288.89,-103.79 288.89,-103.79"/>
<polygon fill="black" stroke="black" points="285.39,-103.79 288.89,-113.79 292.39,-103.79 285.39,-103.79"/>
</g>
<!-- WelcomeSliderPageRoutingModule -->
<g id="node3" class="node">
<title>WelcomeSliderPageRoutingModule</title>
<polygon fill="#8dd3c7" stroke="black" points="242.46,-84.8 239.46,-88.8 218.46,-88.8 215.46,-84.8 23.54,-84.8 23.54,-48.8 242.46,-48.8 242.46,-84.8"/>
<text text-anchor="middle" x="133" y="-62.6" font-family="Times,serif" font-size="14.00">WelcomeSliderPageRoutingModule</text>
</g>
<!-- WelcomeSliderPageRoutingModule&#45;&gt;WelcomeSliderPageModule -->
<g id="edge2" class="edge">
<title>WelcomeSliderPageRoutingModule&#45;&gt;WelcomeSliderPageModule</title>
<path fill="none" stroke="black" d="M190.28,-84.91C190.28,-84.91 190.28,-103.79 190.28,-103.79"/>
<polygon fill="black" stroke="black" points="186.78,-103.79 190.28,-113.79 193.78,-103.79 186.78,-103.79"/>
</g>
</g>
</svg>
